<svg width="725" height="145" viewBox="0 0 725 145" fill="none" xmlns="http://www.w3.org/2000/svg">
<g clip-path="url(#clip0_33_329279)">
<path d="M34.038 71.9345C36.3661 69.4092 39.5029 67.3742 43.3994 65.8787C47.3205 64.3831 52.2218 63.6231 57.9808 63.6231C60.9951 63.6231 64.1074 63.9663 67.2442 64.6038C70.3811 65.2657 73.2728 66.32 75.8705 67.742C78.4682 69.164 80.7718 71.0028 82.7078 73.2094C84.6193 75.3915 85.9182 78.1129 86.5554 81.3247L86.6534 81.815H114.983V81.2021C114.836 73.5281 112.949 66.8839 109.371 61.4655C105.817 56.0717 101.161 51.6095 95.5982 48.1771C90.0353 44.7692 83.7126 42.2439 76.8263 40.6993C61.6568 37.3158 46.5363 37.6346 33.9154 41.9251C27.0046 44.2788 20.976 47.7603 16.0012 52.247C11.0264 56.7582 7.08082 62.3727 4.26257 68.9679C1.44433 75.5386 0.0229492 83.0899 0.0229492 91.4014C0.0229492 99.7128 1.41982 107.902 4.16455 114.546C6.90927 121.19 10.8793 126.854 15.9277 131.365C20.9515 135.876 27.1026 139.308 34.136 141.589C41.1693 143.869 48.9869 145.021 57.4171 145.021C63.6908 145.021 70.2585 144.286 76.9488 142.814C83.6636 141.343 89.8882 138.892 95.4267 135.533C101.014 132.174 105.695 127.687 109.322 122.244C112.949 116.801 114.885 109.961 115.032 102.017V101.404H86.7514L86.6289 101.87C85.8447 105.107 84.4968 107.877 82.5608 110.108C80.6248 112.364 78.2967 114.203 75.65 115.551C72.9788 116.924 70.038 117.905 66.9257 118.493C63.7888 119.082 60.652 119.376 57.6377 119.376C51.7316 119.376 46.8058 118.616 42.9583 117.12C39.1353 115.625 36.0475 113.565 33.7929 110.991C31.5383 108.416 29.9209 105.401 29.0141 102.042C28.1074 98.634 27.6418 95.0545 27.6418 91.4014C27.6418 87.7482 28.1319 83.9971 29.1121 80.6627C30.0679 77.3774 31.7588 74.4353 34.0625 71.91L34.038 71.9345Z" fill="#0100FE"/>
<path d="M297.093 40.3573C293.368 42.1961 290.01 44.8195 287.094 48.2029C284.202 51.5863 281.874 55.7052 280.183 60.5106C279.668 61.9572 279.227 63.4772 278.884 65.0709V40.014H251.265V141.247H279.08V91.6233C279.08 87.6515 279.325 83.9493 279.766 80.615C280.208 77.3296 281.261 74.3875 282.879 71.8622C284.472 69.386 286.8 67.4 289.814 65.978C292.853 64.556 297.043 63.845 302.263 63.845H321.28V37.6113H308.88C304.812 37.6113 300.842 38.543 297.117 40.3818L297.093 40.3573Z" fill="#0100FE"/>
<path d="M377.081 40.3552C373.356 42.194 369.998 44.8174 367.082 48.2008C364.166 51.5842 361.862 55.7276 360.171 60.5085C359.657 61.9796 359.215 63.4997 358.848 65.0688V39.9874H331.229V141.22H359.044V91.5967C359.044 87.6248 359.264 83.9227 359.73 80.5883C360.171 77.2785 361.225 74.3364 362.842 71.8356C364.435 69.3593 366.763 67.3734 369.778 65.9514C372.816 64.5294 377.007 63.8184 382.227 63.8184H401.244V37.5847H388.844C384.776 37.5847 380.806 38.5164 377.081 40.3552Z" fill="#0100FE"/>
<path d="M457.828 37.6092C440.282 37.6092 426.534 42.0469 416.927 50.7751C407.32 59.5278 402.419 73.2086 402.419 91.425C402.419 100.006 403.743 107.705 406.365 114.349C408.987 120.993 412.761 126.657 417.613 131.168C422.465 135.679 428.421 139.161 435.331 141.49C442.242 143.843 450.084 145.02 458.613 145.02C473.586 145.02 485.888 142.103 495.225 136.316C504.587 130.506 510.566 120.969 512.992 107.901L513.115 107.165H486.918L486.795 107.631C485.643 111.971 482.702 115.403 477.997 117.855C473.243 120.331 466.847 121.582 458.98 121.582C454.79 121.582 450.82 121.091 447.144 120.11C443.492 119.13 440.257 117.683 437.537 115.795C434.817 113.932 432.636 111.554 431.018 108.783C429.499 106.185 428.69 103.095 428.617 99.6139H514.585V91.5967C514.585 73.8951 509.513 60.3124 499.489 51.2409C489.491 42.1695 475.449 37.5847 457.779 37.5847L457.828 37.6092ZM430.945 72.4485C432.611 69.8007 434.841 67.6186 437.537 65.9514C440.257 64.2597 443.468 62.9848 447.045 62.1267C454.128 60.4595 461.455 60.3124 468.636 62.3228C472.165 63.3035 475.326 64.7255 478.046 66.5398C480.766 68.3541 483.021 70.6588 484.761 73.3557C486.378 75.881 487.261 78.7986 487.359 82.0103L428.421 81.4219C428.519 77.9404 429.352 74.9248 430.92 72.4485H430.945Z" fill="#0100FE"/>
<path d="M622.514 44.1089C617.932 41.0197 613.079 38.9848 608.08 38.1022C603.13 37.244 598.841 36.8027 595.386 36.8027C590.803 36.8027 585.877 37.6118 580.706 39.23C575.535 40.8481 570.708 43.447 566.419 46.9284C562.106 50.4344 558.454 54.9947 555.563 60.5111C554.19 63.11 553.136 66.003 552.426 69.1903V39.99H524.415V141.223H552.426V86.7938C552.426 83.0672 553.406 79.6838 555.317 76.7171C557.278 73.726 559.802 71.1272 562.865 68.9696C565.929 66.8121 569.433 65.1204 573.281 63.9681C580.706 61.7125 587.838 61.5654 594.503 63.87C597.689 64.9733 600.532 66.5914 603.007 68.6509C605.458 70.7104 607.467 73.3092 608.938 76.3494C610.433 79.3895 611.168 82.8955 611.168 86.7938V141.223H639.179V82.0129C639.179 71.9608 637.537 63.821 634.302 57.8142C631.067 51.8319 627.097 47.1981 622.514 44.1089Z" fill="#0100FE"/>
<path d="M725.002 63.232V40.014H711.401C704.637 40.014 699.613 38.8862 696.452 36.6305C693.364 34.424 691.82 29.9863 691.82 23.4156V0.00146484H664.398V14.4177C664.398 20.4735 665.084 25.3525 666.432 28.9321C667.804 32.5606 669.764 35.3066 672.24 37.1209C674.053 38.4448 676.161 39.401 678.489 40.014H643.396V63.232H664.594V108.025C664.594 118.127 667.069 126.266 671.921 132.224C676.822 138.206 684.101 141.247 693.585 141.247H724.978V115.405H702.383C698.56 115.405 695.913 114.277 694.295 111.973C692.654 109.619 691.82 106.358 691.82 102.215V63.232H725.002Z" fill="#0100FE"/>
<path d="M126.757 72.8648V40.5999H185.941C181.775 45.6259 146.559 88.4089 151.043 106.478C151.656 108.905 153.151 114.912 157.93 117.168C162.463 119.301 167.659 116.947 169.742 115.991C186.21 108.538 203.512 47.7835 205.521 40.5999H238.311V140.533H193.146C199.419 132.369 205.987 122.586 211.942 111.137C223.215 89.4877 228.41 69.4569 230.886 54.0599C230.077 54.0599 229.268 54.0845 228.435 54.109C227.136 58.375 208.315 118.811 180.99 135.458C171.58 141.195 161.924 142.151 161.924 142.151C159.768 142.372 142.466 143.794 132.002 133.398C124.723 126.166 124.87 115.967 124.846 109.862C124.699 79.46 149.401 56.3401 157.097 49.6223C151.19 52.687 144.304 56.953 137.246 62.8617C133.203 66.2696 129.723 69.653 126.782 72.8648H126.757Z" fill="#0100FE"/>
</g>
<defs>
<clipPath id="clip0_33_329279">
<rect width="725" height="145" fill="white"/>
</clipPath>
</defs>
</svg>
